<mxfile
  host="Electron" 
  agent="Mozilla/5.0 (Macintosh; Intel Mac OS X 10_15_7) AppleWebKit/537.36 (KHTML, like Gecko) draw.io/25.0.2 Chrome/128.0.6613.186 Electron/32.2.5 Safari/537.36" 
  version="25.0.2"
  >
  <diagram
    name="dinghy-architecture"
    >
    <mxGraphModel
      grid="1" 
      gridSize="10" 
      guides="1" 
      tooltips="1" 
      connect="1" 
      arrows="1" 
      fold="1" 
      page="1" 
      pageScale="1" 
      pageWidth="1" 
      pageHeight="1" 
      math="0" 
      shadow="0"
      >
      <root>
        <mxCell
          id="page"
          />
        <mxCell
          id="root" 
          parent="page"
          />
        <mxCell
          style="verticalAlign=top;aspect=fixed;align=center;spacingLeft=5;spacingRight=5;spacingBottom=5;strokeColor=none;" 
          id="dinghyarchitecture" 
          parent="root" 
          value="Dinghy Architecture" 
          vertex="1"
          >
          <mxGeometry
            as="geometry" 
            width="840" 
            height="570" 
            x="0" 
            y="0"
            />
          </mxCell>
        <mxCell
          style="verticalAlign=top;aspect=fixed;align=center;spacingLeft=5;spacingRight=5;spacingBottom=5;" 
          id="coremodules" 
          parent="dinghyarchitecture" 
          value="Core Modules" 
          vertex="1"
          >
          <mxGeometry
            as="geometry" 
            width="570" 
            height="510" 
            x="30" 
            y="30"
            />
          </mxCell>
        <mxCell
          style="verticalAlign=top;aspect=fixed;align=center;spacingLeft=5;spacingRight=5;spacingBottom=5;" 
          id="standardcomponents" 
          parent="coremodules" 
          value="Standard Components" 
          vertex="1"
          >
          <mxGeometry
            as="geometry" 
            width="510" 
            height="130" 
            x="30" 
            y="30"
            />
          </mxCell>
        <mxCell
          style="rounded=1;whiteSpace=wrap;verticalAlign=middle;align=center;shape=module;spacingLeft=20;html=1;" 
          id="module_diagrams" 
          parent="standardcomponents" 
          value="diagrams" 
          vertex="1"
          >
          <mxGeometry
            width="200" 
            height="50" 
            as="geometry" 
            x="35" 
            y="30"
            />
          </mxCell>
        <mxCell
          style="rounded=1;whiteSpace=wrap;verticalAlign=middle;align=center;shape=module;spacingLeft=20;html=1;" 
          id="module_tfaws" 
          parent="standardcomponents" 
          value="tf-aws" 
          vertex="1"
          >
          <mxGeometry
            width="200" 
            height="50" 
            as="geometry" 
            x="275" 
            y="30"
            />
          </mxCell>
        <mxCell
          style="verticalAlign=top;aspect=fixed;align=center;spacingLeft=5;spacingRight=5;spacingBottom=5;" 
          id="base" 
          parent="coremodules" 
          value="Base" 
          vertex="1"
          >
          <mxGeometry
            as="geometry" 
            width="510" 
            height="130" 
            x="30" 
            y="190"
            />
          </mxCell>
        <mxCell
          style="rounded=1;whiteSpace=wrap;verticalAlign=middle;align=center;shape=module;spacingLeft=20;html=1;" 
          id="module_basecomponents" 
          parent="base" 
          value="base-components" 
          vertex="1"
          >
          <mxGeometry
            width="130" 
            height="50" 
            as="geometry" 
            x="70" 
            y="30"
            />
          </mxCell>
        <mxCell
          style="rounded=1;whiteSpace=wrap;verticalAlign=middle;align=center;shape=module;spacingLeft=20;html=1;" 
          id="module_baserenderer" 
          parent="base" 
          value="base-renderer" 
          vertex="1"
          >
          <mxGeometry
            width="130" 
            height="50" 
            as="geometry" 
            x="310" 
            y="30"
            />
          </mxCell>
        <mxCell
          style="verticalAlign=top;aspect=fixed;align=center;spacingLeft=5;spacingRight=5;spacingBottom=5;" 
          id="renderers" 
          parent="coremodules" 
          value="Renderers" 
          vertex="1"
          >
          <mxGeometry
            as="geometry" 
            width="510" 
            height="130" 
            x="30" 
            y="350"
            />
          </mxCell>
        <mxCell
          style="rounded=1;whiteSpace=wrap;verticalAlign=middle;align=center;shape=module;spacingLeft=20;html=1;" 
          id="module_rendererjson" 
          parent="renderers" 
          value="renderer-json" 
          vertex="1"
          >
          <mxGeometry
            width="130" 
            height="50" 
            as="geometry" 
            x="30" 
            y="30"
            />
          </mxCell>
        <mxCell
          style="rounded=1;whiteSpace=wrap;verticalAlign=middle;align=center;shape=module;spacingLeft=20;html=1;" 
          id="module_rendererdrawio" 
          parent="renderers" 
          value="renderer-drawio" 
          vertex="1"
          >
          <mxGeometry
            width="130" 
            height="50" 
            as="geometry" 
            x="190" 
            y="30"
            />
          </mxCell>
        <mxCell
          style="rounded=1;whiteSpace=wrap;verticalAlign=middle;align=center;shape=module;spacingLeft=20;html=1;" 
          id="module_renderertf" 
          parent="renderers" 
          value="renderer-tf" 
          vertex="1"
          >
          <mxGeometry
            width="130" 
            height="50" 
            as="geometry" 
            x="350" 
            y="30"
            />
          </mxCell>
        <mxCell
          style="verticalAlign=top;aspect=fixed;align=center;spacingLeft=5;spacingRight=5;spacingBottom=5;" 
          id="projects" 
          parent="dinghyarchitecture" 
          value="Projects" 
          vertex="1"
          >
          <mxGeometry
            as="geometry" 
            width="180" 
            height="510" 
            x="630" 
            y="30"
            />
          </mxCell>
        <mxCell
          style="rounded=1;whiteSpace=wrap;verticalAlign=middle;align=center;" 
          id="project_projectexamples" 
          parent="projects" 
          value="project / examples" 
          vertex="1"
          >
          <mxGeometry
            width="120" 
            height="60" 
            as="geometry" 
            x="30" 
            y="65"
            />
          </mxCell>
        <mxCell
          style="rounded=1;whiteSpace=wrap;verticalAlign=middle;align=center;" 
          id="project_cli" 
          parent="projects" 
          value="cli" 
          vertex="1"
          >
          <mxGeometry
            width="120" 
            height="60" 
            as="geometry" 
            x="30" 
            y="225"
            />
          </mxCell>
        <mxCell
          style="rounded=1;whiteSpace=wrap;verticalAlign=middle;align=center;" 
          id="project_engine" 
          parent="projects" 
          value="engine" 
          vertex="1"
          >
          <mxGeometry
            width="120" 
            height="60" 
            as="geometry" 
            x="30" 
            y="385"
            />
          </mxCell>
        <mxCell
          id="dependency" 
          source="standardcomponents" 
          target="module_basecomponents" 
          parent="root" 
          edge="1" 
          style="edgeStyle=orthogonalEdgeStyle;"
          >
          <mxGeometry
            relative="1" 
            as="geometry"
            >
            <Array
              as="points"
              >
              <mxPoint
                x="195" 
                y="220"
                />
              <mxPoint
                x="195" 
                y="220"
                />
              </Array>
            </mxGeometry>
          </mxCell>
        <mxCell
          id="dependency_2" 
          source="module_baserenderer" 
          target="module_basecomponents" 
          parent="root" 
          edge="1" 
          style="edgeStyle=orthogonalEdgeStyle;"
          >
          <mxGeometry
            relative="1" 
            as="geometry"
            >
            <Array
              as="points"
              >
              <mxPoint
                x="315" 
                y="275"
                />
              <mxPoint
                x="315" 
                y="275"
                />
              </Array>
            </mxGeometry>
          </mxCell>
        <mxCell
          id="dependency_3" 
          source="renderers" 
          target="module_baserenderer" 
          parent="root" 
          edge="1" 
          style="edgeStyle=orthogonalEdgeStyle;"
          >
          <mxGeometry
            relative="1" 
            as="geometry"
            >
            <Array
              as="points"
              >
              <mxPoint
                x="315" 
                y="340"
                />
              <mxPoint
                x="315" 
                y="340"
                />
              </Array>
            </mxGeometry>
          </mxCell>
        <mxCell
          id="dependency_4" 
          source="project_projectexamples" 
          target="standardcomponents" 
          parent="root" 
          edge="1" 
          style="edgeStyle=orthogonalEdgeStyle;"
          >
          <mxGeometry
            relative="1" 
            as="geometry"
            >
            <Array
              as="points"
              >
              <mxPoint
                x="615" 
                y="125"
                />
              <mxPoint
                x="615" 
                y="125"
                />
              </Array>
            </mxGeometry>
          </mxCell>
        <mxCell
          id="dependency_5" 
          source="project_cli" 
          target="project_projectexamples" 
          parent="root" 
          edge="1" 
          style="edgeStyle=orthogonalEdgeStyle;"
          >
          <mxGeometry
            relative="1" 
            as="geometry"
            >
            <Array
              as="points"
              >
              <mxPoint
                x="720" 
                y="205"
                />
              <mxPoint
                x="720" 
                y="205"
                />
              </Array>
            </mxGeometry>
          </mxCell>
        <mxCell
          id="dependency_6" 
          source="project_engine" 
          target="renderers" 
          parent="root" 
          edge="1" 
          style="edgeStyle=orthogonalEdgeStyle;"
          >
          <mxGeometry
            relative="1" 
            as="geometry"
            >
            <Array
              as="points"
              >
              <mxPoint
                x="615" 
                y="445"
                />
              <mxPoint
                x="615" 
                y="445"
                />
              </Array>
            </mxGeometry>
          </mxCell>
        <mxCell
          id="dependency_7" 
          source="project_cli" 
          target="project_engine" 
          parent="root" 
          edge="1" 
          style="edgeStyle=orthogonalEdgeStyle;"
          >
          <mxGeometry
            relative="1" 
            as="geometry"
            >
            <Array
              as="points"
              >
              <mxPoint
                x="720" 
                y="365"
                />
              <mxPoint
                x="720" 
                y="365"
                />
              </Array>
            </mxGeometry>
          </mxCell>
        </root>
      </mxGraphModel>
    </diagram>
  </mxfile>